<svg width="25" height="25" viewBox="0 0 25 25" fill="none" xmlns="http://www.w3.org/2000/svg">
<path d="M3.00561 9.21744C3.70629 6.39566 5.94376 4.21389 8.78182 3.58502L9.2546 3.48026C11.3923 3.00658 13.6077 3.00658 15.7454 3.48026L16.2182 3.58502C19.0562 4.21389 21.2937 6.39566 21.9944 9.21745C22.5296 11.3731 22.5296 13.6269 21.9944 15.7825C21.2937 18.6043 19.0562 20.7861 16.2182 21.415L15.7454 21.5197C13.6077 21.9934 11.3923 21.9934 9.2546 21.5197L8.78182 21.415C5.94375 20.7861 3.70629 18.6043 3.00561 15.7826C2.47034 13.6269 2.47034 11.3731 3.00561 9.21744Z" stroke="#1B3ED7" stroke-width="1.5"/>
<path fill-rule="evenodd" clip-rule="evenodd" d="M12.5003 7.29167C12.8985 7.29167 13.2214 7.59583 13.2214 7.97102V8.52681H13.3013C14.6424 8.52681 15.625 9.62516 15.625 10.8531C15.625 11.2283 15.3021 11.5324 14.9038 11.5324C14.5056 11.5324 14.1827 11.2283 14.1827 10.8531C14.1827 10.2618 13.7303 9.88551 13.3013 9.88551H13.2214V12.0242L14.1951 12.3578C15.0799 12.6609 15.625 13.4852 15.625 14.3582C15.625 15.4694 14.7345 16.4731 13.5069 16.4731H13.2214V17.029C13.2214 17.4042 12.8985 17.7083 12.5003 17.7083C12.102 17.7083 11.7791 17.4042 11.7791 17.029V16.4731H11.6987C10.3576 16.4731 9.375 15.3748 9.375 14.1469C9.375 13.7717 9.69787 13.4675 10.0962 13.4675C10.4944 13.4675 10.8173 13.7717 10.8173 14.1469C10.8173 14.7381 11.2697 15.1144 11.6987 15.1144H11.7791V12.9759L10.8049 12.6422C9.9201 12.3391 9.375 11.5148 9.375 10.6418C9.375 9.53057 10.2655 8.52681 11.4931 8.52681H11.7791V7.97102C11.7791 7.59583 12.102 7.29167 12.5003 7.29167ZM11.7791 9.88551H11.4931C11.1777 9.88551 10.8173 10.1672 10.8173 10.6418C10.8173 11.0047 11.0417 11.2776 11.2978 11.3653L11.7791 11.5301V9.88551ZM13.2214 13.47V15.1144H13.5069C13.8223 15.1144 14.1827 14.8327 14.1827 14.3582C14.1827 13.9953 13.9583 13.7224 13.7022 13.6347L13.2214 13.47Z" fill="#1B3ED7"/>
</svg>
